<svg width="358" height="377" viewBox="0 0 358 377" fill="none" xmlns="http://www.w3.org/2000/svg">
<path fill-rule="evenodd" clip-rule="evenodd" d="M58.8856 0C58.9948 0.650391 59.0515 1.31836 59.0515 2V36.0859C59.0515 42.7129 64.4241 48.0859 71.0515 48.0859H106.175C112.802 48.0859 118.175 42.7129 118.175 36.0859V2C118.175 1.31836 118.231 0.650391 118.34 0H58.8856ZM189.06 0C189.169 0.650391 189.226 1.31836 189.226 2V46.9766C189.226 53.6035 183.853 58.9766 177.226 58.9766H130.175C123.547 58.9766 118.175 64.3496 118.175 70.9766V105.062C118.175 111.689 112.802 117.062 106.175 117.062H71.0514C64.4241 117.062 59.0515 122.436 59.0515 129.062V158.998C59.0515 165.625 53.6788 170.998 47.0514 170.998H0V347C0 363.568 13.4315 377 30 377H146V337.701C146 331.074 151.373 325.701 158 325.701H212.438C219.065 325.701 224.438 320.328 224.438 313.701V272.387C224.438 265.76 229.81 260.387 236.438 260.387H278.907C285.535 260.387 290.907 255.014 290.907 248.387V213C290.907 206.373 296.28 201 302.907 201H358V0H189.06ZM0 102.021H35.1232C41.7506 102.021 47.1232 96.6484 47.1232 90.0215V70.9766C47.1232 64.3496 41.7506 58.9766 35.1232 58.9766H0V102.021ZM315.531 277.783H358L358 325.701H315.531C308.903 325.701 303.531 320.328 303.531 313.701V289.783C303.531 283.156 308.903 277.783 315.531 277.783ZM290.907 349.17V377H225.093V349.17C225.093 342.543 230.465 337.17 237.093 337.17H278.907C285.535 337.17 290.907 342.543 290.907 349.17Z" fill="white"/>
</svg>
