<svg width="758" height="596" viewBox="0 0 758 596" fill="none" xmlns="http://www.w3.org/2000/svg">
<path fill-rule="evenodd" clip-rule="evenodd" d="M758 20C758 8.95431 749.046 0 738 0H636.058C625.841 0 617.558 8.28273 617.558 18.5C617.558 28.7173 609.276 37 599.058 37H193.147C182.102 37 173.147 45.9543 173.147 57V93C173.147 104.046 164.193 113 153.147 113H132.546C121.5 113 112.546 104.046 112.546 93V57C112.546 45.9543 103.591 37 92.5457 37H20C8.95431 37 0 45.9543 0 57V134C0 145.046 8.95431 154 20 154H90.622C101.668 154 110.622 162.954 110.622 174V183C110.622 194.046 101.668 203 90.6219 203H20C8.95428 203 0 211.954 0 223V346C0 357.046 8.95431 366 20 366H29.0585C40.1042 366 49.0585 374.954 49.0585 386V472C49.0585 483.046 58.0128 492 69.0585 492H153.147C164.193 492 173.147 500.954 173.147 512V576C173.147 587.046 182.102 596 193.147 596H608.14C619.185 596 628.14 587.046 628.14 576V514.657C628.14 509.876 632.016 506 636.797 506C641.578 506 645.454 509.876 645.454 514.657V576C645.454 587.046 654.409 596 665.454 596H738C749.046 596 758 587.046 758 576V499C758 487.954 749.046 479 738 479H667.378C656.333 479 647.378 470.046 647.378 459V450C647.378 438.954 656.333 430 667.378 430H738C749.046 430 758 421.046 758 410V333C758 321.954 749.046 313 738 313H665.454C654.409 313 645.454 321.954 645.454 333V380.343C645.454 385.124 641.578 389 636.797 389C632.016 389 628.14 385.124 628.14 380.343V212C628.14 200.954 637.094 192 648.14 192H738C749.046 192 758 183.046 758 172V20ZM153.147 365C164.193 365 173.147 356.046 173.147 345V250C173.147 238.954 164.193 230 153.147 230H132.546C121.5 230 112.546 238.954 112.546 250V345C112.546 356.046 121.5 365 132.546 365H153.147Z" fill="#D9D9D9"/>
</svg>
